
<svg width="85" height="83" viewBox="0 0 85 83" fill="none" xmlns="http://www.w3.org/2000/svg">
<g clip-path="url(#clip0_249_729)">
<path fill-rule="evenodd" clip-rule="evenodd" d="M33.7148 0.521484C14.9138 4.55246 0.818359 21.2653 0.818359 41.2704C0.818359 61.2754 14.9138 77.9883 33.7148 82.0193V80.9958C15.4704 76.9823 1.81836 60.7206 1.81836 41.2704C1.81836 21.8202 15.4704 5.55851 33.7148 1.54501V0.521484ZM33.7148 5.77392C17.7644 9.70522 5.93555 24.1066 5.93555 41.2707C5.93555 58.4349 17.7644 72.8363 33.7148 76.7676V75.7365C18.3223 71.828 6.93555 57.8791 6.93555 41.2707C6.93555 24.6623 18.3223 10.7135 33.7148 6.80498V5.77392ZM51.5354 6.8731V5.84004C67.3522 9.86444 79.0507 24.2014 79.0507 41.2707C79.0507 58.34 67.3522 72.677 51.5354 76.7014V75.6684C66.794 71.6682 78.0507 57.784 78.0507 41.2707C78.0507 24.7574 66.794 10.8733 51.5354 6.8731ZM51.5354 80.937C69.6478 76.8256 83.1686 60.627 83.1686 41.2704C83.1686 21.9138 69.6478 5.71519 51.5354 1.60384V0.578815C70.2046 4.70871 84.1686 21.3588 84.1686 41.2704C84.1686 61.182 70.2046 77.8321 51.5354 81.962V80.937Z" fill="#F7BE86"/>
<path d="M39.4612 44.606L39.5928 44.1236L39.584 44.1213L39.4612 44.606ZM43.3932 45.6784L43.2616 46.1608L43.2697 46.1629L43.3932 45.6784ZM37.2271 50.1019L37.0967 50.5846L37.1042 50.5866L37.1119 50.5884L37.2271 50.1019ZM33.4739 48.7614L33.7067 48.319L33.0477 47.9721L32.9762 48.7134L33.4739 48.7614ZM32.9824 53.8551L32.4847 53.8071L32.452 54.1453L32.7544 54.3002L32.9824 53.8551ZM40.3548 55.6424L40.8539 55.6725L40.8833 55.1865L40.3982 55.1443L40.3548 55.6424ZM40.0421 60.8255L39.543 60.7954L39.511 61.3255H40.0421V60.8255ZM44.9571 60.8255V61.3255H45.4876L45.4562 60.7959L44.9571 60.8255ZM44.6443 55.553L44.5736 55.0581L44.1179 55.1232L44.1452 55.5827L44.6443 55.553ZM45.5826 40.8974L45.7219 40.4172L45.7208 40.4169L45.5826 40.8974ZM42.0081 39.8698L42.1462 39.3892L42.1334 39.3856L42.1205 39.3826L42.0081 39.8698ZM39.1931 38.7527L38.8639 39.129L38.8707 39.135L38.8778 39.1408L39.1931 38.7527ZM47.2805 35.3569L47.156 35.8412L47.2805 35.3569ZM50.6763 36.5186L50.4312 36.9544L51.1067 37.3344L51.1744 36.5623L50.6763 36.5186ZM51.1231 31.4249L51.6212 31.4686L51.6513 31.126L51.3421 30.9754L51.1231 31.4249ZM44.823 29.9057L44.3239 29.8756L44.2942 30.3686L44.7867 30.4044L44.823 29.9057ZM45.1358 24.7227L45.6349 24.7528L45.6669 24.2227H45.1358V24.7227ZM40.1761 24.7227V24.2227H39.6456L39.677 24.7523L40.1761 24.7227ZM40.4889 29.9951L40.5628 30.4896L41.0151 30.422L40.988 29.9655L40.4889 29.9951ZM32.393 37.5463C32.393 39.8975 33.2557 41.5856 34.5851 42.7875C35.8956 43.9723 37.6284 44.6575 39.3384 45.0907L39.584 44.1213C37.9428 43.7056 36.3916 43.0727 35.2557 42.0457C34.1388 41.0359 33.393 39.6186 33.393 37.5463H32.393ZM39.3296 45.0884L43.2616 46.1608L43.5248 45.196L39.5928 44.1236L39.3296 45.0884ZM43.2697 46.1629C44.3977 46.4504 45.1453 46.7447 45.6056 47.0816C46.0309 47.3929 46.1996 47.7289 46.1996 48.1806H47.1996C47.1996 47.3811 46.8545 46.7565 46.1963 46.2747C45.5731 45.8185 44.6675 45.4872 43.5167 45.1939L43.2697 46.1629ZM46.1996 48.1806C46.1996 48.8306 45.8788 49.3133 45.2021 49.6633C44.4952 50.029 43.4263 50.2274 42.0527 50.2274V51.2274C43.4941 51.2274 44.7487 51.0237 45.6615 50.5516C46.6045 50.0638 47.1996 49.2732 47.1996 48.1806H46.1996ZM42.0527 50.2274C40.5817 50.2274 39.0129 50.011 37.3424 49.6153L37.1119 50.5884C38.8372 50.997 40.4854 51.2274 42.0527 51.2274V50.2274ZM37.3576 49.6192C35.7168 49.1757 34.5072 48.7403 33.7067 48.319L33.241 49.2039C34.1384 49.6762 35.431 50.1344 37.0967 50.5846L37.3576 49.6192ZM32.9762 48.7134L32.4847 53.8071L33.48 53.9032L33.9715 48.8094L32.9762 48.7134ZM32.7544 54.3002C34.6673 55.2799 37.1969 55.8697 40.3115 56.1405L40.3982 55.1443C37.3467 54.8789 34.9613 54.307 33.2103 53.4101L32.7544 54.3002ZM39.8557 55.6123L39.543 60.7954L40.5412 60.8556L40.8539 55.6725L39.8557 55.6123ZM40.0421 61.3255H44.9571V60.3255H40.0421V61.3255ZM45.4562 60.7959L45.1434 55.5234L44.1452 55.5827L44.4579 60.8551L45.4562 60.7959ZM44.715 56.048C49.5724 55.3541 52.8742 52.3008 52.8742 48.0465H51.8742C51.8742 51.6562 49.0993 54.4115 44.5736 55.0581L44.715 56.048ZM52.8742 48.0465C52.8742 46.0748 52.2511 44.4815 51.0109 43.2171C49.7865 41.9686 47.9959 41.0767 45.7219 40.4172L45.4433 41.3777C47.6375 42.014 49.2427 42.8423 50.297 43.9173C51.3356 44.9763 51.8742 46.3096 51.8742 48.0465H52.8742ZM45.7208 40.4169L42.1462 39.3892L41.8699 40.3503L45.4444 41.378L45.7208 40.4169ZM42.1205 39.3826C40.9512 39.1127 40.1223 38.8634 39.5084 38.3647L38.8778 39.1408C39.6938 39.8037 40.7415 40.0906 41.8956 40.357L42.1205 39.3826ZM39.5224 38.3764C39.2731 38.1583 39.0676 37.8038 39.0676 37.2782H38.0676C38.0676 38.0931 38.3983 38.7216 38.8639 39.129L39.5224 38.3764ZM39.0676 37.2782C39.0676 36.6941 39.3679 36.2184 40.0152 35.8619C40.6835 35.4938 41.6949 35.276 42.9911 35.276V34.276C41.6063 34.276 40.406 34.5051 39.5328 34.986C38.6386 35.4784 38.0676 36.2538 38.0676 37.2782H39.0676ZM42.9911 35.276C44.2408 35.276 45.6287 35.4484 47.156 35.8412L47.405 34.8727C45.8046 34.4611 44.3329 34.276 42.9911 34.276V35.276ZM47.156 35.8412C48.7232 36.2441 49.7804 36.5884 50.4312 36.9544L50.9214 36.0828C50.1424 35.6446 48.9656 35.2739 47.405 34.8727L47.156 35.8412ZM51.1744 36.5623L51.6212 31.4686L50.625 31.3812L50.1782 36.4749L51.1744 36.5623ZM51.3421 30.9754C49.5264 30.0909 47.3599 29.5889 44.8593 29.4071L44.7867 30.4044C47.2011 30.58 49.2346 31.0611 50.9041 31.8744L51.3421 30.9754ZM45.3221 29.9359L45.6349 24.7528L44.6367 24.6925L44.3239 29.8756L45.3221 29.9359ZM45.1358 24.2227H40.1761V25.2227H45.1358V24.2227ZM39.677 24.7523L39.9898 30.0247L40.988 29.9655L40.6752 24.693L39.677 24.7523ZM40.4149 29.5006C37.9428 29.8703 35.9368 30.8125 34.5438 32.2115C33.1456 33.6157 32.393 35.4531 32.393 37.5463H33.393C33.393 35.7075 34.0479 34.1268 35.2524 32.9171C36.4621 31.7022 38.254 30.8348 40.5628 30.4896L40.4149 29.5006Z" fill="#F7BE86"/>
</g>
<defs>
<clipPath id="clip0_249_729">
<rect width="85" height="83" fill="white"/>
</clipPath>
</defs>
</svg>
